
<svg xmlns="http://www.w3.org/2000/svg" width="24" height="24" viewBox="0 0 24 24" fill="none">
  <circle cx="12" cy="12" r="10" stroke="white" strokeOpacity="0.7" strokeWidth="1" fill="black" />
  <path d="M12 6C11.1 6 10.3 6.3 9.7 6.9C9.3 7.3 9.1 7.9 9 8.5C8.1 8.9 7.5 9.9 7.5 11C7.5 11.8 7.9 12.6 8.5 13C8.1 13.4 8 14 8 14.5C8 15.9 9.1 17 10.5 17H15C16.7 17 18 15.7 18 14C18 13.1 17.6 12.3 17 11.7C17.6 11.1 18 10.1 18 9C18 7.3 16.7 6 15 6H12Z" stroke="white" strokeWidth="1" fill="#333333" />
  <circle cx="10.5" cy="8.5" r="0.75" fill="white" />
  <circle cx="15" cy="9.5" r="0.75" fill="white" />
  <circle cx="14" cy="14" r="0.75" fill="white" />
  <path d="M10.5 12C10.5 11.4477 10.0523 11 9.5 11C8.94772 11 8.5 11.4477 8.5 12C8.5 12.5523 8.94772 13 9.5 13C10.0523 13 10.5 12.5523 10.5 12Z" fill="white" />
</svg>
